<?xml version="1.0" encoding="utf-8"?>
<!-- Svg Vector Icons : http://www.onlinewebfonts.com/icon -->
<!DOCTYPE svg PUBLIC "-//W3C//DTD SVG 1.1//EN" "http://www.w3.org/Graphics/SVG/1.1/DTD/svg11.dtd">
<svg version="1.1" xmlns="http://www.w3.org/2000/svg" xmlns:xlink="http://www.w3.org/1999/xlink"
	x="0px" y="0px" viewBox="0 0 1000 1000" enable-background="new 0 0 1000 1000" xml:space="preserve">
	<style>
    path { fill: #000000; }
    @media (prefers-color-scheme: dark) {
      path { fill: #ffffff; }
    }
  </style>

<g><g transform="translate(0.000000,511.000000) scale(0.100000,-0.100000)"><path d="M4739.6,4970.8c-553.5-148.8-897.1-724.2-757-1262.4c94.1-358.8,378.5-658.6,717.6-752.7l124.7-35V2203v-715.4l-91.9-15.3c-271.3-43.8-601.7-234.1-798.6-461.7c-100.6-113.8-113.8-120.3-157.5-96.3c-28.5,13.1-52.5,21.9-56.9,17.5c-17.5-17.5-142.2-282.2-142.2-297.5c0-10.9,24.1-30.6,50.3-41.6l52.5-24.1l-41.6-161.9c-56.9-214.4-43.8-487.9,35-728.6c41.6-131.3,48.1-177.2,28.5-190.4c-15.3-8.8-420.1-266.9-899.2-573.2l-875.2-555.7l-98.5,87.5C1249.9-1043.8,331-1337,131.9-2094c-142.2-549.2,205.7-1122.4,765.8-1269c564.5-146.6,1159.6,231.9,1282.1,813.9c28.4,146.6,15.3,393.8-30.6,522.9l-32.8,87.5l822.7,525.1c452.9,286.6,859.9,547,908,575.4l85.3,50.3l56.9-65.6c157.5-175,474.8-354.5,708.9-400.4l126.9-26.2v-94.1v-96.3h175h175v96.3v94.1l133.5,28.4c242.9,52.5,544.8,223.2,702.3,398.2l56.9,65.6l85.3-50.3c48.1-28.4,455.1-288.8,908-575.4l822.7-525.1l-32.8-87.5c-17.5-50.3-37.2-157.5-43.8-242.9c-54.7-700.1,617-1269,1295.3-1094c560.1,146.6,908,719.8,765.8,1269c-146.6,560.1-719.8,908-1264.6,765.8c-166.3-43.8-310.7-118.2-433.2-225.4l-98.5-87.5l-875.2,555.7c-479.2,306.3-886.1,564.5-901.4,575.4c-21.9,13.1-15.3,52.5,32.8,190.4c52.5,151,59.1,203.5,59.1,424.5c-2.2,166.3-13.1,286.6-37.2,356.6c-32.8,105-32.8,105,19.7,129.1c28.5,13.1,52.5,32.8,52.5,43.8c0,15.3-124.7,280-142.2,297.5c-4.4,4.4-28.4-4.4-56.9-17.5c-43.8-24.1-56.9-17.5-157.5,96.3c-196.9,227.5-527.3,417.9-796.4,461.7l-94.1,15.3v717.6v717.6l100.7,24.1c347.9,87.5,645.4,393.8,741.7,757C6212.1,4456.6,5490.1,5172.1,4739.6,4970.8z M5295.4,4587.9c137.8-65.6,271.3-196.9,339.1-336.9c41.6-87.5,52.5-144.4,52.5-295.4c2.2-170.7-4.4-196.9-72.2-323.8c-83.2-153.2-151-218.8-317.3-306.3c-96.3-50.3-137.9-59.1-297.6-56.9c-157.5,0-203.5,8.8-297.6,56.9c-164.1,85.3-234.1,153.2-317.3,306.3c-67.8,126.9-74.4,153.2-72.2,323.8c0,151,10.9,205.7,52.5,295.4c91.9,188.2,269.1,332.6,470.4,385.1C4954.1,4666.7,5177.2,4642.6,5295.4,4587.9z M5251.6,1122.2c376.3-98.5,667.3-391.6,765.8-770.2c142.2-544.8-205.6-1118-765.8-1264.6c-549.2-142.2-1122.4,205.7-1269,765.8C3787.9,603.7,4501.2,1316.9,5251.6,1122.2z M1363.7-1680.5c166.3-54.7,306.3-172.8,396-336.9c72.2-131.3,78.8-155.4,78.8-328.2c0-170.7-6.6-196.9-74.4-323.8c-83.1-153.2-151-218.8-317.3-306.3c-96.3-50.3-137.8-59.1-297.6-59.1c-172.8,0-196.9,6.6-328.2,78.7c-301.9,166.3-442,509.8-336.9,822.7C611-1761.5,996.1-1562.4,1363.7-1680.5z M9146.1-1713.3c137.8-65.6,269.1-196.9,339.1-336.9c43.8-89.7,54.7-142.2,54.7-295.4c0-170.7-6.6-196.9-74.4-323.8c-83.1-153.2-151-218.8-317.2-306.3c-96.3-50.3-137.8-59.1-297.5-59.1c-153.2,0-205.7,10.9-295.4,54.7c-568.9,277.9-520.7,1083,76.6,1299.6C8769.8-1630.2,9003.9-1645.5,9146.1-1713.3z"/><path d="M580.4,2868.2C85.9,2695.3-60.7,2078.3,306.9,1713c140-142.2,273.5-194.7,481.3-196.9c199.1,0,343.5,52.5,461.7,166.3c67.8,65.6,70,65.6,135.6,32.8c37.2-19.7,72.2-35,78.8-35c6.6,0,48.1,70,89.7,153.2l76.6,153.2l-70,35c-72.2,32.8-72.2,35-72.2,192.5c0,140-8.8,179.4-76.6,310.7C1254.3,2833.2,899.8,2979.8,580.4,2868.2z M937,2524.7c225.4-94.1,280.1-387.3,105-562.3c-245-247.2-647.6-26.2-584.2,319.5C497.2,2487.5,737.9,2610,937,2524.7z"/><path d="M8979.9,2870.4c-172.9-59.1-306.3-177.2-391.7-345.7c-67.8-131.3-76.6-170.7-76.6-310.7c0-157.5,0-159.7-72.2-192.5l-70-35l76.6-153.2c41.6-83.1,83.1-153.2,89.7-153.2c6.6,0,41.6,15.3,78.8,35c65.6,32.8,67.8,32.8,135.7-32.8c118.1-113.8,262.6-166.3,461.7-166.3c146.6,0,192.5,10.9,286.6,59.1c166.3,87.5,234.1,153.2,317.2,306.3c67.8,126.9,74.4,153.2,72.2,323.8c0,218.8-52.5,350.1-194.7,492.3C9513.7,2876.9,9211.8,2951.3,8979.9,2870.4z M9338.7,2524.7c225.4-94.1,280-387.3,105-562.3c-245-247.2-647.6-26.2-584.2,319.5C8898.9,2487.5,9139.6,2610,9338.7,2524.7z"/><path d="M1849.4,1680.1c-39.4-83.1-70-155.4-63.5-161.9c19.7-17.5,286.6-146.6,293.2-140c15.3,17.5,142.2,280,142.2,297.5c0,13.1-264.7,157.5-291,157.5C1926,1833.3,1891,1765.5,1849.4,1680.1z"/><path d="M7920.9,1763.3c-72.2-37.2-135.7-70-140-74.4c-10.9-8.7,131.3-315,144.4-315c10.9,0,277.9,133.5,288.8,144.4c13.1,10.9-133.5,315.1-148.8,315.1C8058.7,1831.1,7993.1,1800.5,7920.9,1763.3z"/><path d="M2451.1,1373.8l-76.6-153.2l131.3-65.6c72.2-35,140-65.6,153.2-65.6c21.9,0,153.2,242.9,153.2,284.4c0,17.5-238.5,153.2-273.5,153.2C2534.2,1527,2492.6,1459.2,2451.1,1373.8z"/><path d="M7303.9,1454.8l-133.5-70l74.4-146.6c41.6-83.1,85.3-148.8,96.3-148.8c13.1,0,81,30.6,153.2,65.6l131.3,65.6l-76.6,153.2c-41.6,85.3-85.3,153.2-94.1,153.2C7446.1,1524.8,7378.3,1494.2,7303.9,1454.8z"/><path d="M3048.4,1080.6l-78.8-159.7l140-67.8c76.6-39.4,144.4-70,151-70c6.6,0,46,67.8,87.5,153.2l76.6,153.2l-148.8,74.4l-148.8,74.4L3048.4,1080.6z"/><path d="M6721.9,1163.8l-146.6-74.4l76.6-153.2c41.6-85.3,83.1-153.2,87.5-153.2c39.4,0,273.5,137.8,273.5,159.7c-2.2,13.1-32.8,87.5-72.2,161.9l-70,133.5L6721.9,1163.8z"/><path d="M4825-1995.6v-175h175h175v175v175h-175h-175V-1995.6z"/><path d="M4825-2695.7v-175h175h175v175v175h-175h-175V-2695.7z"/><path d="M4825-3314.9c0-94.1-2.2-96.3-113.8-146.6c-140-63.5-275.7-194.7-345.7-339.1c-76.6-157.5-76.6-433.2,0-590.7c67.8-140,199.1-271.3,339.1-339.1c89.7-43.8,142.2-54.7,295.4-54.7c172.8,0,196.9,6.6,328.2,78.8c507.6,277.9,483.5,1008.7-39.4,1244.9c-111.6,50.3-113.8,52.5-113.8,146.6v94.1h-175h-175V-3314.9z M5137.8-3776.6c225.4-94.1,280.1-387.2,105-562.3c-142.2-142.2-343.5-142.2-485.7,0C4485.8-4069.7,4785.6-3627.8,5137.8-3776.6z"/></g></g>
</svg>